<?xml version="1.0" encoding="UTF-8"?>
<!DOCTYPE svg PUBLIC "-//W3C//DTD SVG 1.1//EN" "http://www.w3.org/Graphics/SVG/1.1/DTD/svg11.dtd">
<svg xmlns="http://www.w3.org/2000/svg" version="1.1" width="512px" height="512px" style="shape-rendering:geometricPrecision; text-rendering:geometricPrecision; image-rendering:optimizeQuality; fill-rule:evenodd; clip-rule:evenodd" xmlns:xlink="http://www.w3.org/1999/xlink">
<g><path style="opacity:0.999" fill="#aa01aa" d="M 40.5,-0.5 C 183.833,-0.5 327.167,-0.5 470.5,-0.5C 491.833,5.5 505.5,19.1667 511.5,40.5C 511.5,183.833 511.5,327.167 511.5,470.5C 505.5,491.833 491.833,505.5 470.5,511.5C 327.167,511.5 183.833,511.5 40.5,511.5C 19.1667,505.5 5.5,491.833 -0.5,470.5C -0.5,327.167 -0.5,183.833 -0.5,40.5C 5.5,19.1667 19.1667,5.5 40.5,-0.5 Z"/></g>
<g><path style="opacity:1" fill="#fefcfe" d="M 383.5,73.5 C 385.167,73.5 386.833,73.5 388.5,73.5C 388.737,77.722 388.404,81.8886 387.5,86C 387.905,86.9454 388.572,87.6121 389.5,88C 412.683,90.379 435.016,96.0457 456.5,105C 472.115,111.623 484.282,122.123 493,136.5C 499.67,152.129 498.337,167.129 489,181.5C 477.138,198.014 462.305,211.181 444.5,221C 418.362,234.787 390.695,244.12 361.5,249C 346.185,251.016 330.852,252.85 315.5,254.5C 322.833,295.172 336,333.839 355,370.5C 363.533,386.374 374.367,400.541 387.5,413C 400.822,422.588 414.489,422.921 428.5,414C 442.825,402.676 454.658,389.176 464,373.5C 471.254,360.659 478.254,347.659 485,334.5C 486.734,332.549 488.901,331.549 491.5,331.5C 481.275,360.952 467.108,388.285 449,413.5C 427.076,438.858 400.909,444.692 370.5,431C 351.765,418.262 337.265,401.762 327,381.5C 308.186,342.725 295.186,302.058 288,259.5C 276.735,281.087 265.068,302.42 253,323.5C 237.259,350.257 218.092,374.424 195.5,396C 151.349,434.62 101.015,445.954 44.5,430C 23.5563,421.417 13.723,405.917 15,383.5C 20.1406,367.693 30.6406,357.193 46.5,352C 69.4485,346.734 91.7818,348.734 113.5,358C 114.337,359.011 114.67,360.178 114.5,361.5C 106.109,360.488 97.776,358.988 89.5,357C 59.2757,353.899 44.4424,367.399 45,397.5C 49.7522,411.25 59.2522,419.75 73.5,423C 106.012,426.71 134.679,418.043 159.5,397C 176.295,382.528 191.129,366.362 204,348.5C 219.416,326.008 234.082,303.008 248,279.5C 272.747,235.005 297.747,190.671 323,146.5C 334.344,128.821 346.844,111.987 360.5,96C 298.669,89.9488 237.669,94.6155 177.5,110C 143.172,119.715 114.005,137.548 90,163.5C 80.1599,175.18 73.4932,188.514 70,203.5C 65.7726,239.43 81.6059,259.097 117.5,262.5C 140.129,262.435 158.296,253.435 172,235.5C 178.477,227.38 182.644,218.213 184.5,208C 185.449,207.383 186.282,207.549 187,208.5C 187.206,228.597 179.372,245.097 163.5,258C 136.329,277.637 107.663,280.304 77.5,266C 60.5578,255.967 50.7245,241.133 48,221.5C 45.9343,204.227 48.9343,187.893 57,172.5C 66.925,153.572 80.7583,138.072 98.5,126C 135.299,101.4 175.966,87.7331 220.5,85C 269.163,79.3443 317.83,79.1776 366.5,84.5C 368.167,84.3333 369.833,84.1667 371.5,84C 375.101,79.8893 379.101,76.3893 383.5,73.5 Z"/></g>
<g><path style="opacity:1" fill="#aa03aa" d="M 381.5,98.5 C 397.726,100.482 413.726,103.649 429.5,108C 463.529,119.221 473.029,141.054 458,173.5C 437.713,202.917 410.213,222.417 375.5,232C 369.5,233.333 363.5,234.667 357.5,236C 337.588,237.909 317.755,240.075 298,242.5C 304.48,227.875 311.814,213.542 320,199.5C 341.013,166.139 361.513,132.472 381.5,98.5 Z"/></g>
</svg>
